<svg xmlns="http://www.w3.org/2000/svg" viewBox="0 0 280 420" fill="none">
  <defs>
    <linearGradient id="a-bg" x1="0" y1="0" x2="1" y2="1">
      <stop offset="0%" stop-color="#f4e7c8"/>
      <stop offset="100%" stop-color="#e0ba71"/>
    </linearGradient>
  </defs>
  <path d="M140 82c31 0 55 23 55 53 0 32-24 54-55 54-32 0-56-22-56-54 0-30 24-53 56-53z" fill="#f7e8cb"/>
  <path d="M70 378l26-150c14-22 29-34 44-34s30 12 44 34l26 150H70z" fill="#8f152e"/>
  <path d="M84 118l56-52 56 52-20 18h-72l-20-18z" fill="#5e0a1c"/>
  <path d="M70 318l28-24h84l28 24v60H70v-60z" fill="#5e0a1c"/>
</svg>